# xmcd
#
# Track frame offsets: 
#        150
#        19930
#        35497
#        53400
#        72290
#        81580
#        102722
#        122575
#        145410
#        166080
#
# Disc length: 2633 seconds
#
# Revision: 5
# Processed by: cddbd v1.5.2PL0 Copyright (c) Steve Scherf et al.
# Submitted via: ExactAudioCopy v1.0b2
#
DISCID=880a470a
DTITLE=Tracy Chapman - Matters of the Heart
DYEAR=1992
DGENRE=Slow Rock
TTITLE0=Bang Bang Bang
TTITLE1=So
TTITLE2=I Used to be a Sailor
TTITLE3=The Love That You Had
TTITLE4=Woman's Work
TTITLE5=If These are the Things
TTITLE6=Short Supply
TTITLE7=Dreaming on a World
TTITLE8=Open Arms
TTITLE9=Matters of the Heart
EXTD=
EXTT0=
EXTT1=
EXTT2=
EXTT3=
EXTT4=
EXTT5=
EXTT6=
EXTT7=
EXTT8=
EXTT9=
PLAYORDER=
